<mxfile host="Electron" modified="2024-01-04T02:32:02.480Z" agent="Mozilla/5.0 (Windows NT 10.0; Win64; x64) AppleWebKit/537.36 (KHTML, like Gecko) draw.io/22.1.16 Chrome/120.0.6099.109 Electron/28.1.0 Safari/537.36" etag="bP9Ne2YZ2okNFZQTUulu" version="22.1.16" type="device">
  <diagram name="Page-1" id="Urzdh7b6UVgCdlluKcoO">
    <mxGraphModel dx="1434" dy="836" grid="1" gridSize="10" guides="1" tooltips="1" connect="1" arrows="1" fold="1" page="1" pageScale="1" pageWidth="827" pageHeight="1169" math="0" shadow="0">
      <root>
        <mxCell id="0" />
        <mxCell id="1" parent="0" />
        <mxCell id="VuWfE9Mjuec_pssRb9Yb-154" value="0" style="whiteSpace=wrap;html=1;aspect=fixed;" vertex="1" parent="1">
          <mxGeometry y="220" width="20" height="20" as="geometry" />
        </mxCell>
        <mxCell id="VuWfE9Mjuec_pssRb9Yb-195" style="edgeStyle=orthogonalEdgeStyle;rounded=0;orthogonalLoop=1;jettySize=auto;html=1;entryX=0.25;entryY=1;entryDx=0;entryDy=0;" edge="1" parent="1" source="VuWfE9Mjuec_pssRb9Yb-155" target="VuWfE9Mjuec_pssRb9Yb-178">
          <mxGeometry relative="1" as="geometry">
            <mxPoint x="90" y="220" as="targetPoint" />
          </mxGeometry>
        </mxCell>
        <mxCell id="VuWfE9Mjuec_pssRb9Yb-209" value="选" style="edgeLabel;html=1;align=center;verticalAlign=middle;resizable=0;points=[];" vertex="1" connectable="0" parent="VuWfE9Mjuec_pssRb9Yb-195">
          <mxGeometry x="-0.0296" y="-1" relative="1" as="geometry">
            <mxPoint as="offset" />
          </mxGeometry>
        </mxCell>
        <mxCell id="VuWfE9Mjuec_pssRb9Yb-155" value="0" style="whiteSpace=wrap;html=1;aspect=fixed;" vertex="1" parent="1">
          <mxGeometry x="20" y="220" width="20" height="20" as="geometry" />
        </mxCell>
        <mxCell id="VuWfE9Mjuec_pssRb9Yb-156" value="0" style="whiteSpace=wrap;html=1;aspect=fixed;" vertex="1" parent="1">
          <mxGeometry x="40" y="220" width="20" height="20" as="geometry" />
        </mxCell>
        <mxCell id="VuWfE9Mjuec_pssRb9Yb-159" value="1" style="whiteSpace=wrap;html=1;aspect=fixed;" vertex="1" parent="1">
          <mxGeometry y="240" width="20" height="20" as="geometry" />
        </mxCell>
        <mxCell id="VuWfE9Mjuec_pssRb9Yb-160" value="0" style="whiteSpace=wrap;html=1;aspect=fixed;" vertex="1" parent="1">
          <mxGeometry x="20" y="240" width="20" height="20" as="geometry" />
        </mxCell>
        <mxCell id="VuWfE9Mjuec_pssRb9Yb-161" value="1" style="whiteSpace=wrap;html=1;aspect=fixed;" vertex="1" parent="1">
          <mxGeometry x="40" y="240" width="20" height="20" as="geometry" />
        </mxCell>
        <mxCell id="VuWfE9Mjuec_pssRb9Yb-162" value="0" style="whiteSpace=wrap;html=1;aspect=fixed;" vertex="1" parent="1">
          <mxGeometry y="260" width="20" height="20" as="geometry" />
        </mxCell>
        <mxCell id="VuWfE9Mjuec_pssRb9Yb-163" value="1" style="whiteSpace=wrap;html=1;aspect=fixed;" vertex="1" parent="1">
          <mxGeometry x="20" y="260" width="20" height="20" as="geometry" />
        </mxCell>
        <mxCell id="VuWfE9Mjuec_pssRb9Yb-164" value="1" style="whiteSpace=wrap;html=1;aspect=fixed;" vertex="1" parent="1">
          <mxGeometry x="40" y="260" width="20" height="20" as="geometry" />
        </mxCell>
        <mxCell id="VuWfE9Mjuec_pssRb9Yb-165" value="0" style="whiteSpace=wrap;html=1;aspect=fixed;" vertex="1" parent="1">
          <mxGeometry y="280" width="20" height="20" as="geometry" />
        </mxCell>
        <mxCell id="VuWfE9Mjuec_pssRb9Yb-166" value="0" style="whiteSpace=wrap;html=1;aspect=fixed;" vertex="1" parent="1">
          <mxGeometry x="20" y="280" width="20" height="20" as="geometry" />
        </mxCell>
        <mxCell id="VuWfE9Mjuec_pssRb9Yb-196" style="edgeStyle=orthogonalEdgeStyle;rounded=0;orthogonalLoop=1;jettySize=auto;html=1;entryX=0.25;entryY=0;entryDx=0;entryDy=0;" edge="1" parent="1" source="VuWfE9Mjuec_pssRb9Yb-167" target="VuWfE9Mjuec_pssRb9Yb-181">
          <mxGeometry relative="1" as="geometry">
            <mxPoint x="20" y="420" as="targetPoint" />
          </mxGeometry>
        </mxCell>
        <mxCell id="VuWfE9Mjuec_pssRb9Yb-210" value="不选" style="edgeLabel;html=1;align=center;verticalAlign=middle;resizable=0;points=[];" vertex="1" connectable="0" parent="VuWfE9Mjuec_pssRb9Yb-196">
          <mxGeometry x="-0.1972" relative="1" as="geometry">
            <mxPoint as="offset" />
          </mxGeometry>
        </mxCell>
        <mxCell id="VuWfE9Mjuec_pssRb9Yb-167" value="1" style="whiteSpace=wrap;html=1;aspect=fixed;" vertex="1" parent="1">
          <mxGeometry x="40" y="280" width="20" height="20" as="geometry" />
        </mxCell>
        <mxCell id="VuWfE9Mjuec_pssRb9Yb-168" value="0" style="whiteSpace=wrap;html=1;aspect=fixed;fillColor=#3399FF;" vertex="1" parent="1">
          <mxGeometry x="110" y="90" width="20" height="20" as="geometry" />
        </mxCell>
        <mxCell id="VuWfE9Mjuec_pssRb9Yb-235" style="edgeStyle=orthogonalEdgeStyle;rounded=0;orthogonalLoop=1;jettySize=auto;html=1;entryX=0.5;entryY=1;entryDx=0;entryDy=0;" edge="1" parent="1" source="VuWfE9Mjuec_pssRb9Yb-169" target="VuWfE9Mjuec_pssRb9Yb-221">
          <mxGeometry relative="1" as="geometry" />
        </mxCell>
        <mxCell id="VuWfE9Mjuec_pssRb9Yb-169" value="0" style="whiteSpace=wrap;html=1;aspect=fixed;" vertex="1" parent="1">
          <mxGeometry x="130" y="90" width="20" height="20" as="geometry" />
        </mxCell>
        <mxCell id="VuWfE9Mjuec_pssRb9Yb-170" value="0" style="whiteSpace=wrap;html=1;aspect=fixed;" vertex="1" parent="1">
          <mxGeometry x="150" y="90" width="20" height="20" as="geometry" />
        </mxCell>
        <mxCell id="VuWfE9Mjuec_pssRb9Yb-171" value="1" style="whiteSpace=wrap;html=1;aspect=fixed;fillColor=#3399FF;" vertex="1" parent="1">
          <mxGeometry x="110" y="110" width="20" height="20" as="geometry" />
        </mxCell>
        <mxCell id="VuWfE9Mjuec_pssRb9Yb-172" value="0" style="whiteSpace=wrap;html=1;aspect=fixed;" vertex="1" parent="1">
          <mxGeometry x="130" y="110" width="20" height="20" as="geometry" />
        </mxCell>
        <mxCell id="VuWfE9Mjuec_pssRb9Yb-173" value="1" style="whiteSpace=wrap;html=1;aspect=fixed;" vertex="1" parent="1">
          <mxGeometry x="150" y="110" width="20" height="20" as="geometry" />
        </mxCell>
        <mxCell id="VuWfE9Mjuec_pssRb9Yb-174" value="0" style="whiteSpace=wrap;html=1;aspect=fixed;fillColor=#3399FF;" vertex="1" parent="1">
          <mxGeometry x="110" y="130" width="20" height="20" as="geometry" />
        </mxCell>
        <mxCell id="VuWfE9Mjuec_pssRb9Yb-175" value="1" style="whiteSpace=wrap;html=1;aspect=fixed;" vertex="1" parent="1">
          <mxGeometry x="130" y="130" width="20" height="20" as="geometry" />
        </mxCell>
        <mxCell id="VuWfE9Mjuec_pssRb9Yb-176" value="1" style="whiteSpace=wrap;html=1;aspect=fixed;" vertex="1" parent="1">
          <mxGeometry x="150" y="130" width="20" height="20" as="geometry" />
        </mxCell>
        <mxCell id="VuWfE9Mjuec_pssRb9Yb-177" value="0" style="whiteSpace=wrap;html=1;aspect=fixed;fillColor=#3399FF;" vertex="1" parent="1">
          <mxGeometry x="110" y="150" width="20" height="20" as="geometry" />
        </mxCell>
        <mxCell id="VuWfE9Mjuec_pssRb9Yb-178" value="0" style="whiteSpace=wrap;html=1;aspect=fixed;" vertex="1" parent="1">
          <mxGeometry x="130" y="150" width="20" height="20" as="geometry" />
        </mxCell>
        <mxCell id="VuWfE9Mjuec_pssRb9Yb-236" style="edgeStyle=orthogonalEdgeStyle;rounded=0;orthogonalLoop=1;jettySize=auto;html=1;entryX=0.5;entryY=0;entryDx=0;entryDy=0;" edge="1" parent="1" source="VuWfE9Mjuec_pssRb9Yb-179" target="VuWfE9Mjuec_pssRb9Yb-224">
          <mxGeometry relative="1" as="geometry" />
        </mxCell>
        <mxCell id="VuWfE9Mjuec_pssRb9Yb-179" value="1" style="whiteSpace=wrap;html=1;aspect=fixed;" vertex="1" parent="1">
          <mxGeometry x="150" y="150" width="20" height="20" as="geometry" />
        </mxCell>
        <mxCell id="VuWfE9Mjuec_pssRb9Yb-180" value="0" style="whiteSpace=wrap;html=1;aspect=fixed;" vertex="1" parent="1">
          <mxGeometry x="70" y="550" width="20" height="20" as="geometry" />
        </mxCell>
        <mxCell id="VuWfE9Mjuec_pssRb9Yb-181" value="0" style="whiteSpace=wrap;html=1;aspect=fixed;" vertex="1" parent="1">
          <mxGeometry x="90" y="550" width="20" height="20" as="geometry" />
        </mxCell>
        <mxCell id="VuWfE9Mjuec_pssRb9Yb-340" style="edgeStyle=orthogonalEdgeStyle;rounded=0;orthogonalLoop=1;jettySize=auto;html=1;entryX=0;entryY=0.5;entryDx=0;entryDy=0;" edge="1" parent="1" source="VuWfE9Mjuec_pssRb9Yb-182" target="VuWfE9Mjuec_pssRb9Yb-331">
          <mxGeometry relative="1" as="geometry" />
        </mxCell>
        <mxCell id="VuWfE9Mjuec_pssRb9Yb-182" value="0" style="whiteSpace=wrap;html=1;aspect=fixed;" vertex="1" parent="1">
          <mxGeometry x="110" y="550" width="20" height="20" as="geometry" />
        </mxCell>
        <mxCell id="VuWfE9Mjuec_pssRb9Yb-183" value="1" style="whiteSpace=wrap;html=1;aspect=fixed;" vertex="1" parent="1">
          <mxGeometry x="70" y="570" width="20" height="20" as="geometry" />
        </mxCell>
        <mxCell id="VuWfE9Mjuec_pssRb9Yb-184" value="0" style="whiteSpace=wrap;html=1;aspect=fixed;" vertex="1" parent="1">
          <mxGeometry x="90" y="570" width="20" height="20" as="geometry" />
        </mxCell>
        <mxCell id="VuWfE9Mjuec_pssRb9Yb-185" value="1" style="whiteSpace=wrap;html=1;aspect=fixed;" vertex="1" parent="1">
          <mxGeometry x="110" y="570" width="20" height="20" as="geometry" />
        </mxCell>
        <mxCell id="VuWfE9Mjuec_pssRb9Yb-186" value="0" style="whiteSpace=wrap;html=1;aspect=fixed;" vertex="1" parent="1">
          <mxGeometry x="70" y="590" width="20" height="20" as="geometry" />
        </mxCell>
        <mxCell id="VuWfE9Mjuec_pssRb9Yb-187" value="1" style="whiteSpace=wrap;html=1;aspect=fixed;" vertex="1" parent="1">
          <mxGeometry x="90" y="590" width="20" height="20" as="geometry" />
        </mxCell>
        <mxCell id="VuWfE9Mjuec_pssRb9Yb-188" value="1" style="whiteSpace=wrap;html=1;aspect=fixed;" vertex="1" parent="1">
          <mxGeometry x="110" y="590" width="20" height="20" as="geometry" />
        </mxCell>
        <mxCell id="VuWfE9Mjuec_pssRb9Yb-189" value="0" style="whiteSpace=wrap;html=1;aspect=fixed;" vertex="1" parent="1">
          <mxGeometry x="70" y="610" width="20" height="20" as="geometry" />
        </mxCell>
        <mxCell id="VuWfE9Mjuec_pssRb9Yb-190" value="0" style="whiteSpace=wrap;html=1;aspect=fixed;" vertex="1" parent="1">
          <mxGeometry x="90" y="610" width="20" height="20" as="geometry" />
        </mxCell>
        <mxCell id="VuWfE9Mjuec_pssRb9Yb-341" style="edgeStyle=orthogonalEdgeStyle;rounded=0;orthogonalLoop=1;jettySize=auto;html=1;entryX=0.5;entryY=1;entryDx=0;entryDy=0;" edge="1" parent="1" source="VuWfE9Mjuec_pssRb9Yb-191" target="VuWfE9Mjuec_pssRb9Yb-313">
          <mxGeometry relative="1" as="geometry" />
        </mxCell>
        <mxCell id="VuWfE9Mjuec_pssRb9Yb-191" value="1" style="whiteSpace=wrap;html=1;aspect=fixed;" vertex="1" parent="1">
          <mxGeometry x="110" y="610" width="20" height="20" as="geometry" />
        </mxCell>
        <mxCell id="VuWfE9Mjuec_pssRb9Yb-211" value="0" style="whiteSpace=wrap;html=1;aspect=fixed;fillColor=#3399FF;" vertex="1" parent="1">
          <mxGeometry x="330" width="20" height="20" as="geometry" />
        </mxCell>
        <mxCell id="VuWfE9Mjuec_pssRb9Yb-212" value="0" style="whiteSpace=wrap;html=1;aspect=fixed;fillColor=#3399FF;" vertex="1" parent="1">
          <mxGeometry x="350" width="20" height="20" as="geometry" />
        </mxCell>
        <mxCell id="VuWfE9Mjuec_pssRb9Yb-213" value="0" style="whiteSpace=wrap;html=1;aspect=fixed;" vertex="1" parent="1">
          <mxGeometry x="370" width="20" height="20" as="geometry" />
        </mxCell>
        <mxCell id="VuWfE9Mjuec_pssRb9Yb-214" value="1" style="whiteSpace=wrap;html=1;aspect=fixed;fillColor=#3399FF;" vertex="1" parent="1">
          <mxGeometry x="330" y="20" width="20" height="20" as="geometry" />
        </mxCell>
        <mxCell id="VuWfE9Mjuec_pssRb9Yb-215" value="0" style="whiteSpace=wrap;html=1;aspect=fixed;fillColor=#3399FF;" vertex="1" parent="1">
          <mxGeometry x="350" y="20" width="20" height="20" as="geometry" />
        </mxCell>
        <mxCell id="VuWfE9Mjuec_pssRb9Yb-216" value="1" style="whiteSpace=wrap;html=1;aspect=fixed;" vertex="1" parent="1">
          <mxGeometry x="370" y="20" width="20" height="20" as="geometry" />
        </mxCell>
        <mxCell id="VuWfE9Mjuec_pssRb9Yb-217" value="0" style="whiteSpace=wrap;html=1;aspect=fixed;fillColor=#3399FF;" vertex="1" parent="1">
          <mxGeometry x="330" y="40" width="20" height="20" as="geometry" />
        </mxCell>
        <mxCell id="VuWfE9Mjuec_pssRb9Yb-218" value="1" style="whiteSpace=wrap;html=1;aspect=fixed;fillColor=#3399FF;" vertex="1" parent="1">
          <mxGeometry x="350" y="40" width="20" height="20" as="geometry" />
        </mxCell>
        <mxCell id="VuWfE9Mjuec_pssRb9Yb-219" value="1" style="whiteSpace=wrap;html=1;aspect=fixed;" vertex="1" parent="1">
          <mxGeometry x="370" y="40" width="20" height="20" as="geometry" />
        </mxCell>
        <mxCell id="VuWfE9Mjuec_pssRb9Yb-220" value="0" style="whiteSpace=wrap;html=1;aspect=fixed;fillColor=#3399FF;" vertex="1" parent="1">
          <mxGeometry x="330" y="60" width="20" height="20" as="geometry" />
        </mxCell>
        <mxCell id="VuWfE9Mjuec_pssRb9Yb-221" value="0" style="whiteSpace=wrap;html=1;aspect=fixed;fillColor=#3399FF;" vertex="1" parent="1">
          <mxGeometry x="350" y="60" width="20" height="20" as="geometry" />
        </mxCell>
        <mxCell id="VuWfE9Mjuec_pssRb9Yb-222" value="1" style="whiteSpace=wrap;html=1;aspect=fixed;" vertex="1" parent="1">
          <mxGeometry x="370" y="60" width="20" height="20" as="geometry" />
        </mxCell>
        <mxCell id="VuWfE9Mjuec_pssRb9Yb-223" value="0" style="whiteSpace=wrap;html=1;aspect=fixed;fillColor=#3399FF;" vertex="1" parent="1">
          <mxGeometry x="330" y="220" width="20" height="20" as="geometry" />
        </mxCell>
        <mxCell id="VuWfE9Mjuec_pssRb9Yb-224" value="0" style="whiteSpace=wrap;html=1;aspect=fixed;" vertex="1" parent="1">
          <mxGeometry x="350" y="220" width="20" height="20" as="geometry" />
        </mxCell>
        <mxCell id="VuWfE9Mjuec_pssRb9Yb-299" style="edgeStyle=orthogonalEdgeStyle;rounded=0;orthogonalLoop=1;jettySize=auto;html=1;entryX=0;entryY=0.5;entryDx=0;entryDy=0;" edge="1" parent="1" source="VuWfE9Mjuec_pssRb9Yb-225" target="VuWfE9Mjuec_pssRb9Yb-278">
          <mxGeometry relative="1" as="geometry" />
        </mxCell>
        <mxCell id="VuWfE9Mjuec_pssRb9Yb-301" value="选" style="edgeLabel;html=1;align=center;verticalAlign=middle;resizable=0;points=[];" vertex="1" connectable="0" parent="VuWfE9Mjuec_pssRb9Yb-299">
          <mxGeometry x="0.7895" y="1" relative="1" as="geometry">
            <mxPoint as="offset" />
          </mxGeometry>
        </mxCell>
        <mxCell id="VuWfE9Mjuec_pssRb9Yb-225" value="0" style="whiteSpace=wrap;html=1;aspect=fixed;" vertex="1" parent="1">
          <mxGeometry x="370" y="220" width="20" height="20" as="geometry" />
        </mxCell>
        <mxCell id="VuWfE9Mjuec_pssRb9Yb-226" value="1" style="whiteSpace=wrap;html=1;aspect=fixed;fillColor=#3399FF;" vertex="1" parent="1">
          <mxGeometry x="330" y="240" width="20" height="20" as="geometry" />
        </mxCell>
        <mxCell id="VuWfE9Mjuec_pssRb9Yb-227" value="0" style="whiteSpace=wrap;html=1;aspect=fixed;" vertex="1" parent="1">
          <mxGeometry x="350" y="240" width="20" height="20" as="geometry" />
        </mxCell>
        <mxCell id="VuWfE9Mjuec_pssRb9Yb-228" value="1" style="whiteSpace=wrap;html=1;aspect=fixed;" vertex="1" parent="1">
          <mxGeometry x="370" y="240" width="20" height="20" as="geometry" />
        </mxCell>
        <mxCell id="VuWfE9Mjuec_pssRb9Yb-229" value="0" style="whiteSpace=wrap;html=1;aspect=fixed;fillColor=#3399FF;" vertex="1" parent="1">
          <mxGeometry x="330" y="260" width="20" height="20" as="geometry" />
        </mxCell>
        <mxCell id="VuWfE9Mjuec_pssRb9Yb-230" value="1" style="whiteSpace=wrap;html=1;aspect=fixed;" vertex="1" parent="1">
          <mxGeometry x="350" y="260" width="20" height="20" as="geometry" />
        </mxCell>
        <mxCell id="VuWfE9Mjuec_pssRb9Yb-231" value="1" style="whiteSpace=wrap;html=1;aspect=fixed;" vertex="1" parent="1">
          <mxGeometry x="370" y="260" width="20" height="20" as="geometry" />
        </mxCell>
        <mxCell id="VuWfE9Mjuec_pssRb9Yb-232" value="0" style="whiteSpace=wrap;html=1;aspect=fixed;fillColor=#3399FF;" vertex="1" parent="1">
          <mxGeometry x="330" y="280" width="20" height="20" as="geometry" />
        </mxCell>
        <mxCell id="VuWfE9Mjuec_pssRb9Yb-233" value="0" style="whiteSpace=wrap;html=1;aspect=fixed;" vertex="1" parent="1">
          <mxGeometry x="350" y="280" width="20" height="20" as="geometry" />
        </mxCell>
        <mxCell id="VuWfE9Mjuec_pssRb9Yb-300" style="edgeStyle=orthogonalEdgeStyle;rounded=0;orthogonalLoop=1;jettySize=auto;html=1;entryX=0.25;entryY=0;entryDx=0;entryDy=0;" edge="1" parent="1" source="VuWfE9Mjuec_pssRb9Yb-234" target="VuWfE9Mjuec_pssRb9Yb-288">
          <mxGeometry relative="1" as="geometry" />
        </mxCell>
        <mxCell id="VuWfE9Mjuec_pssRb9Yb-302" value="不选" style="edgeLabel;html=1;align=center;verticalAlign=middle;resizable=0;points=[];" vertex="1" connectable="0" parent="VuWfE9Mjuec_pssRb9Yb-300">
          <mxGeometry x="0.5025" y="2" relative="1" as="geometry">
            <mxPoint as="offset" />
          </mxGeometry>
        </mxCell>
        <mxCell id="VuWfE9Mjuec_pssRb9Yb-234" value="1" style="whiteSpace=wrap;html=1;aspect=fixed;" vertex="1" parent="1">
          <mxGeometry x="370" y="280" width="20" height="20" as="geometry" />
        </mxCell>
        <mxCell id="VuWfE9Mjuec_pssRb9Yb-275" value="0" style="whiteSpace=wrap;html=1;aspect=fixed;fillColor=#3399FF;" vertex="1" parent="1">
          <mxGeometry x="540" y="140" width="20" height="20" as="geometry" />
        </mxCell>
        <mxCell id="VuWfE9Mjuec_pssRb9Yb-276" value="0" style="whiteSpace=wrap;html=1;aspect=fixed;" vertex="1" parent="1">
          <mxGeometry x="560" y="140" width="20" height="20" as="geometry" />
        </mxCell>
        <mxCell id="VuWfE9Mjuec_pssRb9Yb-277" value="0" style="whiteSpace=wrap;html=1;aspect=fixed;fillColor=#3399FF;" vertex="1" parent="1">
          <mxGeometry x="580" y="140" width="20" height="20" as="geometry" />
        </mxCell>
        <mxCell id="VuWfE9Mjuec_pssRb9Yb-278" value="1" style="whiteSpace=wrap;html=1;aspect=fixed;fillColor=#3399FF;" vertex="1" parent="1">
          <mxGeometry x="540" y="160" width="20" height="20" as="geometry" />
        </mxCell>
        <mxCell id="VuWfE9Mjuec_pssRb9Yb-279" value="0" style="whiteSpace=wrap;html=1;aspect=fixed;" vertex="1" parent="1">
          <mxGeometry x="560" y="160" width="20" height="20" as="geometry" />
        </mxCell>
        <mxCell id="VuWfE9Mjuec_pssRb9Yb-280" value="1" style="whiteSpace=wrap;html=1;aspect=fixed;fillColor=#3399FF;" vertex="1" parent="1">
          <mxGeometry x="580" y="160" width="20" height="20" as="geometry" />
        </mxCell>
        <mxCell id="VuWfE9Mjuec_pssRb9Yb-281" value="0" style="whiteSpace=wrap;html=1;aspect=fixed;fillColor=#3399FF;" vertex="1" parent="1">
          <mxGeometry x="540" y="180" width="20" height="20" as="geometry" />
        </mxCell>
        <mxCell id="VuWfE9Mjuec_pssRb9Yb-282" value="1" style="whiteSpace=wrap;html=1;aspect=fixed;" vertex="1" parent="1">
          <mxGeometry x="560" y="180" width="20" height="20" as="geometry" />
        </mxCell>
        <mxCell id="VuWfE9Mjuec_pssRb9Yb-283" value="1" style="whiteSpace=wrap;html=1;aspect=fixed;fillColor=#3399FF;" vertex="1" parent="1">
          <mxGeometry x="580" y="180" width="20" height="20" as="geometry" />
        </mxCell>
        <mxCell id="VuWfE9Mjuec_pssRb9Yb-284" value="0" style="whiteSpace=wrap;html=1;aspect=fixed;fillColor=#3399FF;" vertex="1" parent="1">
          <mxGeometry x="540" y="200" width="20" height="20" as="geometry" />
        </mxCell>
        <mxCell id="VuWfE9Mjuec_pssRb9Yb-285" value="0" style="whiteSpace=wrap;html=1;aspect=fixed;" vertex="1" parent="1">
          <mxGeometry x="560" y="200" width="20" height="20" as="geometry" />
        </mxCell>
        <mxCell id="VuWfE9Mjuec_pssRb9Yb-286" value="1" style="whiteSpace=wrap;html=1;aspect=fixed;fillColor=#3399FF;" vertex="1" parent="1">
          <mxGeometry x="580" y="200" width="20" height="20" as="geometry" />
        </mxCell>
        <mxCell id="VuWfE9Mjuec_pssRb9Yb-287" value="0" style="whiteSpace=wrap;html=1;aspect=fixed;fillColor=#3399FF;" vertex="1" parent="1">
          <mxGeometry x="540" y="310" width="20" height="20" as="geometry" />
        </mxCell>
        <mxCell id="VuWfE9Mjuec_pssRb9Yb-288" value="0" style="whiteSpace=wrap;html=1;aspect=fixed;" vertex="1" parent="1">
          <mxGeometry x="560" y="310" width="20" height="20" as="geometry" />
        </mxCell>
        <mxCell id="VuWfE9Mjuec_pssRb9Yb-289" value="0" style="whiteSpace=wrap;html=1;aspect=fixed;" vertex="1" parent="1">
          <mxGeometry x="580" y="310" width="20" height="20" as="geometry" />
        </mxCell>
        <mxCell id="VuWfE9Mjuec_pssRb9Yb-290" value="1" style="whiteSpace=wrap;html=1;aspect=fixed;fillColor=#3399FF;" vertex="1" parent="1">
          <mxGeometry x="540" y="330" width="20" height="20" as="geometry" />
        </mxCell>
        <mxCell id="VuWfE9Mjuec_pssRb9Yb-291" value="0" style="whiteSpace=wrap;html=1;aspect=fixed;" vertex="1" parent="1">
          <mxGeometry x="560" y="330" width="20" height="20" as="geometry" />
        </mxCell>
        <mxCell id="VuWfE9Mjuec_pssRb9Yb-292" value="1" style="whiteSpace=wrap;html=1;aspect=fixed;" vertex="1" parent="1">
          <mxGeometry x="580" y="330" width="20" height="20" as="geometry" />
        </mxCell>
        <mxCell id="VuWfE9Mjuec_pssRb9Yb-293" value="0" style="whiteSpace=wrap;html=1;aspect=fixed;fillColor=#3399FF;" vertex="1" parent="1">
          <mxGeometry x="540" y="350" width="20" height="20" as="geometry" />
        </mxCell>
        <mxCell id="VuWfE9Mjuec_pssRb9Yb-294" value="1" style="whiteSpace=wrap;html=1;aspect=fixed;" vertex="1" parent="1">
          <mxGeometry x="560" y="350" width="20" height="20" as="geometry" />
        </mxCell>
        <mxCell id="VuWfE9Mjuec_pssRb9Yb-295" value="1" style="whiteSpace=wrap;html=1;aspect=fixed;" vertex="1" parent="1">
          <mxGeometry x="580" y="350" width="20" height="20" as="geometry" />
        </mxCell>
        <mxCell id="VuWfE9Mjuec_pssRb9Yb-296" value="0" style="whiteSpace=wrap;html=1;aspect=fixed;fillColor=#3399FF;" vertex="1" parent="1">
          <mxGeometry x="540" y="370" width="20" height="20" as="geometry" />
        </mxCell>
        <mxCell id="VuWfE9Mjuec_pssRb9Yb-297" value="0" style="whiteSpace=wrap;html=1;aspect=fixed;" vertex="1" parent="1">
          <mxGeometry x="560" y="370" width="20" height="20" as="geometry" />
        </mxCell>
        <mxCell id="VuWfE9Mjuec_pssRb9Yb-298" value="1" style="whiteSpace=wrap;html=1;aspect=fixed;" vertex="1" parent="1">
          <mxGeometry x="580" y="370" width="20" height="20" as="geometry" />
        </mxCell>
        <mxCell id="VuWfE9Mjuec_pssRb9Yb-303" value="0" style="whiteSpace=wrap;html=1;aspect=fixed;" vertex="1" parent="1">
          <mxGeometry x="210" y="710" width="20" height="20" as="geometry" />
        </mxCell>
        <mxCell id="VuWfE9Mjuec_pssRb9Yb-304" value="0" style="whiteSpace=wrap;html=1;aspect=fixed;" vertex="1" parent="1">
          <mxGeometry x="230" y="710" width="20" height="20" as="geometry" />
        </mxCell>
        <mxCell id="VuWfE9Mjuec_pssRb9Yb-391" style="edgeStyle=orthogonalEdgeStyle;rounded=0;orthogonalLoop=1;jettySize=auto;html=1;entryX=0;entryY=0.75;entryDx=0;entryDy=0;" edge="1" parent="1" source="VuWfE9Mjuec_pssRb9Yb-305" target="VuWfE9Mjuec_pssRb9Yb-370">
          <mxGeometry relative="1" as="geometry" />
        </mxCell>
        <mxCell id="VuWfE9Mjuec_pssRb9Yb-397" value="选" style="edgeLabel;html=1;align=center;verticalAlign=middle;resizable=0;points=[];" vertex="1" connectable="0" parent="VuWfE9Mjuec_pssRb9Yb-391">
          <mxGeometry x="0.6074" relative="1" as="geometry">
            <mxPoint as="offset" />
          </mxGeometry>
        </mxCell>
        <mxCell id="VuWfE9Mjuec_pssRb9Yb-305" value="0" style="whiteSpace=wrap;html=1;aspect=fixed;" vertex="1" parent="1">
          <mxGeometry x="250" y="710" width="20" height="20" as="geometry" />
        </mxCell>
        <mxCell id="VuWfE9Mjuec_pssRb9Yb-306" value="1" style="whiteSpace=wrap;html=1;aspect=fixed;" vertex="1" parent="1">
          <mxGeometry x="210" y="730" width="20" height="20" as="geometry" />
        </mxCell>
        <mxCell id="VuWfE9Mjuec_pssRb9Yb-307" value="0" style="whiteSpace=wrap;html=1;aspect=fixed;" vertex="1" parent="1">
          <mxGeometry x="230" y="730" width="20" height="20" as="geometry" />
        </mxCell>
        <mxCell id="VuWfE9Mjuec_pssRb9Yb-308" value="1" style="whiteSpace=wrap;html=1;aspect=fixed;" vertex="1" parent="1">
          <mxGeometry x="250" y="730" width="20" height="20" as="geometry" />
        </mxCell>
        <mxCell id="VuWfE9Mjuec_pssRb9Yb-309" value="0" style="whiteSpace=wrap;html=1;aspect=fixed;" vertex="1" parent="1">
          <mxGeometry x="210" y="750" width="20" height="20" as="geometry" />
        </mxCell>
        <mxCell id="VuWfE9Mjuec_pssRb9Yb-310" value="1" style="whiteSpace=wrap;html=1;aspect=fixed;" vertex="1" parent="1">
          <mxGeometry x="230" y="750" width="20" height="20" as="geometry" />
        </mxCell>
        <mxCell id="VuWfE9Mjuec_pssRb9Yb-311" value="1" style="whiteSpace=wrap;html=1;aspect=fixed;" vertex="1" parent="1">
          <mxGeometry x="250" y="750" width="20" height="20" as="geometry" />
        </mxCell>
        <mxCell id="VuWfE9Mjuec_pssRb9Yb-312" value="0" style="whiteSpace=wrap;html=1;aspect=fixed;" vertex="1" parent="1">
          <mxGeometry x="210" y="770" width="20" height="20" as="geometry" />
        </mxCell>
        <mxCell id="VuWfE9Mjuec_pssRb9Yb-313" value="0" style="whiteSpace=wrap;html=1;aspect=fixed;" vertex="1" parent="1">
          <mxGeometry x="230" y="770" width="20" height="20" as="geometry" />
        </mxCell>
        <mxCell id="VuWfE9Mjuec_pssRb9Yb-392" style="edgeStyle=orthogonalEdgeStyle;rounded=0;orthogonalLoop=1;jettySize=auto;html=1;entryX=0.5;entryY=0;entryDx=0;entryDy=0;" edge="1" parent="1" source="VuWfE9Mjuec_pssRb9Yb-314" target="VuWfE9Mjuec_pssRb9Yb-380">
          <mxGeometry relative="1" as="geometry" />
        </mxCell>
        <mxCell id="VuWfE9Mjuec_pssRb9Yb-398" value="不选" style="edgeLabel;html=1;align=center;verticalAlign=middle;resizable=0;points=[];" vertex="1" connectable="0" parent="VuWfE9Mjuec_pssRb9Yb-392">
          <mxGeometry x="0.1294" y="1" relative="1" as="geometry">
            <mxPoint as="offset" />
          </mxGeometry>
        </mxCell>
        <mxCell id="VuWfE9Mjuec_pssRb9Yb-314" value="1" style="whiteSpace=wrap;html=1;aspect=fixed;" vertex="1" parent="1">
          <mxGeometry x="250" y="770" width="20" height="20" as="geometry" />
        </mxCell>
        <mxCell id="VuWfE9Mjuec_pssRb9Yb-328" value="0" style="whiteSpace=wrap;html=1;aspect=fixed;" vertex="1" parent="1">
          <mxGeometry x="220" y="450" width="20" height="20" as="geometry" />
        </mxCell>
        <mxCell id="VuWfE9Mjuec_pssRb9Yb-329" value="0" style="whiteSpace=wrap;html=1;aspect=fixed;fillColor=#3399FF;" vertex="1" parent="1">
          <mxGeometry x="240" y="450" width="20" height="20" as="geometry" />
        </mxCell>
        <mxCell id="VuWfE9Mjuec_pssRb9Yb-393" style="edgeStyle=orthogonalEdgeStyle;rounded=0;orthogonalLoop=1;jettySize=auto;html=1;entryX=0.5;entryY=1;entryDx=0;entryDy=0;" edge="1" parent="1" source="VuWfE9Mjuec_pssRb9Yb-330" target="VuWfE9Mjuec_pssRb9Yb-353">
          <mxGeometry relative="1" as="geometry" />
        </mxCell>
        <mxCell id="VuWfE9Mjuec_pssRb9Yb-395" value="选" style="edgeLabel;html=1;align=center;verticalAlign=middle;resizable=0;points=[];" vertex="1" connectable="0" parent="VuWfE9Mjuec_pssRb9Yb-393">
          <mxGeometry x="0.2351" y="1" relative="1" as="geometry">
            <mxPoint as="offset" />
          </mxGeometry>
        </mxCell>
        <mxCell id="VuWfE9Mjuec_pssRb9Yb-330" value="0" style="whiteSpace=wrap;html=1;aspect=fixed;" vertex="1" parent="1">
          <mxGeometry x="260" y="450" width="20" height="20" as="geometry" />
        </mxCell>
        <mxCell id="VuWfE9Mjuec_pssRb9Yb-331" value="1" style="whiteSpace=wrap;html=1;aspect=fixed;" vertex="1" parent="1">
          <mxGeometry x="220" y="470" width="20" height="20" as="geometry" />
        </mxCell>
        <mxCell id="VuWfE9Mjuec_pssRb9Yb-332" value="0" style="whiteSpace=wrap;html=1;aspect=fixed;fillColor=#3399FF;" vertex="1" parent="1">
          <mxGeometry x="240" y="470" width="20" height="20" as="geometry" />
        </mxCell>
        <mxCell id="VuWfE9Mjuec_pssRb9Yb-333" value="1" style="whiteSpace=wrap;html=1;aspect=fixed;" vertex="1" parent="1">
          <mxGeometry x="260" y="470" width="20" height="20" as="geometry" />
        </mxCell>
        <mxCell id="VuWfE9Mjuec_pssRb9Yb-334" value="0" style="whiteSpace=wrap;html=1;aspect=fixed;" vertex="1" parent="1">
          <mxGeometry x="220" y="490" width="20" height="20" as="geometry" />
        </mxCell>
        <mxCell id="VuWfE9Mjuec_pssRb9Yb-335" value="1" style="whiteSpace=wrap;html=1;aspect=fixed;fillColor=#3399FF;" vertex="1" parent="1">
          <mxGeometry x="240" y="490" width="20" height="20" as="geometry" />
        </mxCell>
        <mxCell id="VuWfE9Mjuec_pssRb9Yb-336" value="1" style="whiteSpace=wrap;html=1;aspect=fixed;" vertex="1" parent="1">
          <mxGeometry x="260" y="490" width="20" height="20" as="geometry" />
        </mxCell>
        <mxCell id="VuWfE9Mjuec_pssRb9Yb-337" value="0" style="whiteSpace=wrap;html=1;aspect=fixed;" vertex="1" parent="1">
          <mxGeometry x="220" y="510" width="20" height="20" as="geometry" />
        </mxCell>
        <mxCell id="VuWfE9Mjuec_pssRb9Yb-338" value="0" style="whiteSpace=wrap;html=1;aspect=fixed;fillColor=#3399FF;" vertex="1" parent="1">
          <mxGeometry x="240" y="510" width="20" height="20" as="geometry" />
        </mxCell>
        <mxCell id="VuWfE9Mjuec_pssRb9Yb-394" style="edgeStyle=orthogonalEdgeStyle;rounded=0;orthogonalLoop=1;jettySize=auto;html=1;entryX=0.5;entryY=0;entryDx=0;entryDy=0;" edge="1" parent="1" source="VuWfE9Mjuec_pssRb9Yb-339" target="VuWfE9Mjuec_pssRb9Yb-356">
          <mxGeometry relative="1" as="geometry" />
        </mxCell>
        <mxCell id="VuWfE9Mjuec_pssRb9Yb-396" value="不选" style="edgeLabel;html=1;align=center;verticalAlign=middle;resizable=0;points=[];" vertex="1" connectable="0" parent="VuWfE9Mjuec_pssRb9Yb-394">
          <mxGeometry x="0.265" y="1" relative="1" as="geometry">
            <mxPoint as="offset" />
          </mxGeometry>
        </mxCell>
        <mxCell id="VuWfE9Mjuec_pssRb9Yb-339" value="1" style="whiteSpace=wrap;html=1;aspect=fixed;" vertex="1" parent="1">
          <mxGeometry x="260" y="510" width="20" height="20" as="geometry" />
        </mxCell>
        <mxCell id="VuWfE9Mjuec_pssRb9Yb-343" value="0" style="whiteSpace=wrap;html=1;aspect=fixed;" vertex="1" parent="1">
          <mxGeometry x="540" y="420" width="20" height="20" as="geometry" />
        </mxCell>
        <mxCell id="VuWfE9Mjuec_pssRb9Yb-344" value="0" style="whiteSpace=wrap;html=1;aspect=fixed;fillColor=#3399FF;" vertex="1" parent="1">
          <mxGeometry x="560" y="420" width="20" height="20" as="geometry" />
        </mxCell>
        <mxCell id="VuWfE9Mjuec_pssRb9Yb-345" value="0" style="whiteSpace=wrap;html=1;aspect=fixed;fillColor=#3399FF;" vertex="1" parent="1">
          <mxGeometry x="580" y="420" width="20" height="20" as="geometry" />
        </mxCell>
        <mxCell id="VuWfE9Mjuec_pssRb9Yb-346" value="1" style="whiteSpace=wrap;html=1;aspect=fixed;" vertex="1" parent="1">
          <mxGeometry x="540" y="440" width="20" height="20" as="geometry" />
        </mxCell>
        <mxCell id="VuWfE9Mjuec_pssRb9Yb-347" value="0" style="whiteSpace=wrap;html=1;aspect=fixed;fillColor=#3399FF;" vertex="1" parent="1">
          <mxGeometry x="560" y="440" width="20" height="20" as="geometry" />
        </mxCell>
        <mxCell id="VuWfE9Mjuec_pssRb9Yb-348" value="1" style="whiteSpace=wrap;html=1;aspect=fixed;fillColor=#3399FF;" vertex="1" parent="1">
          <mxGeometry x="580" y="440" width="20" height="20" as="geometry" />
        </mxCell>
        <mxCell id="VuWfE9Mjuec_pssRb9Yb-349" value="0" style="whiteSpace=wrap;html=1;aspect=fixed;" vertex="1" parent="1">
          <mxGeometry x="540" y="460" width="20" height="20" as="geometry" />
        </mxCell>
        <mxCell id="VuWfE9Mjuec_pssRb9Yb-350" value="1" style="whiteSpace=wrap;html=1;aspect=fixed;fillColor=#3399FF;" vertex="1" parent="1">
          <mxGeometry x="560" y="460" width="20" height="20" as="geometry" />
        </mxCell>
        <mxCell id="VuWfE9Mjuec_pssRb9Yb-351" value="1" style="whiteSpace=wrap;html=1;aspect=fixed;fillColor=#3399FF;" vertex="1" parent="1">
          <mxGeometry x="580" y="460" width="20" height="20" as="geometry" />
        </mxCell>
        <mxCell id="VuWfE9Mjuec_pssRb9Yb-352" value="0" style="whiteSpace=wrap;html=1;aspect=fixed;" vertex="1" parent="1">
          <mxGeometry x="540" y="480" width="20" height="20" as="geometry" />
        </mxCell>
        <mxCell id="VuWfE9Mjuec_pssRb9Yb-353" value="0" style="whiteSpace=wrap;html=1;aspect=fixed;fillColor=#3399FF;" vertex="1" parent="1">
          <mxGeometry x="560" y="480" width="20" height="20" as="geometry" />
        </mxCell>
        <mxCell id="VuWfE9Mjuec_pssRb9Yb-354" value="1" style="whiteSpace=wrap;html=1;aspect=fixed;fillColor=#3399FF;" vertex="1" parent="1">
          <mxGeometry x="580" y="480" width="20" height="20" as="geometry" />
        </mxCell>
        <mxCell id="VuWfE9Mjuec_pssRb9Yb-355" value="0" style="whiteSpace=wrap;html=1;aspect=fixed;" vertex="1" parent="1">
          <mxGeometry x="540" y="590" width="20" height="20" as="geometry" />
        </mxCell>
        <mxCell id="VuWfE9Mjuec_pssRb9Yb-356" value="0" style="whiteSpace=wrap;html=1;aspect=fixed;fillColor=#3399FF;" vertex="1" parent="1">
          <mxGeometry x="560" y="590" width="20" height="20" as="geometry" />
        </mxCell>
        <mxCell id="VuWfE9Mjuec_pssRb9Yb-357" value="0" style="whiteSpace=wrap;html=1;aspect=fixed;" vertex="1" parent="1">
          <mxGeometry x="580" y="590" width="20" height="20" as="geometry" />
        </mxCell>
        <mxCell id="VuWfE9Mjuec_pssRb9Yb-358" value="1" style="whiteSpace=wrap;html=1;aspect=fixed;" vertex="1" parent="1">
          <mxGeometry x="540" y="610" width="20" height="20" as="geometry" />
        </mxCell>
        <mxCell id="VuWfE9Mjuec_pssRb9Yb-359" value="0" style="whiteSpace=wrap;html=1;aspect=fixed;fillColor=#3399FF;" vertex="1" parent="1">
          <mxGeometry x="560" y="610" width="20" height="20" as="geometry" />
        </mxCell>
        <mxCell id="VuWfE9Mjuec_pssRb9Yb-360" value="1" style="whiteSpace=wrap;html=1;aspect=fixed;" vertex="1" parent="1">
          <mxGeometry x="580" y="610" width="20" height="20" as="geometry" />
        </mxCell>
        <mxCell id="VuWfE9Mjuec_pssRb9Yb-361" value="0" style="whiteSpace=wrap;html=1;aspect=fixed;" vertex="1" parent="1">
          <mxGeometry x="540" y="630" width="20" height="20" as="geometry" />
        </mxCell>
        <mxCell id="VuWfE9Mjuec_pssRb9Yb-362" value="1" style="whiteSpace=wrap;html=1;aspect=fixed;fillColor=#3399FF;" vertex="1" parent="1">
          <mxGeometry x="560" y="630" width="20" height="20" as="geometry" />
        </mxCell>
        <mxCell id="VuWfE9Mjuec_pssRb9Yb-363" value="1" style="whiteSpace=wrap;html=1;aspect=fixed;" vertex="1" parent="1">
          <mxGeometry x="580" y="630" width="20" height="20" as="geometry" />
        </mxCell>
        <mxCell id="VuWfE9Mjuec_pssRb9Yb-364" value="0" style="whiteSpace=wrap;html=1;aspect=fixed;" vertex="1" parent="1">
          <mxGeometry x="540" y="650" width="20" height="20" as="geometry" />
        </mxCell>
        <mxCell id="VuWfE9Mjuec_pssRb9Yb-365" value="0" style="whiteSpace=wrap;html=1;aspect=fixed;fillColor=#3399FF;" vertex="1" parent="1">
          <mxGeometry x="560" y="650" width="20" height="20" as="geometry" />
        </mxCell>
        <mxCell id="VuWfE9Mjuec_pssRb9Yb-366" value="1" style="whiteSpace=wrap;html=1;aspect=fixed;" vertex="1" parent="1">
          <mxGeometry x="580" y="650" width="20" height="20" as="geometry" />
        </mxCell>
        <mxCell id="VuWfE9Mjuec_pssRb9Yb-367" value="0" style="whiteSpace=wrap;html=1;aspect=fixed;" vertex="1" parent="1">
          <mxGeometry x="340" y="660" width="20" height="20" as="geometry" />
        </mxCell>
        <mxCell id="VuWfE9Mjuec_pssRb9Yb-368" value="0" style="whiteSpace=wrap;html=1;aspect=fixed;" vertex="1" parent="1">
          <mxGeometry x="360" y="660" width="20" height="20" as="geometry" />
        </mxCell>
        <mxCell id="VuWfE9Mjuec_pssRb9Yb-369" value="0" style="whiteSpace=wrap;html=1;aspect=fixed;fillColor=#3399FF;" vertex="1" parent="1">
          <mxGeometry x="380" y="660" width="20" height="20" as="geometry" />
        </mxCell>
        <mxCell id="VuWfE9Mjuec_pssRb9Yb-370" value="1" style="whiteSpace=wrap;html=1;aspect=fixed;" vertex="1" parent="1">
          <mxGeometry x="340" y="680" width="20" height="20" as="geometry" />
        </mxCell>
        <mxCell id="VuWfE9Mjuec_pssRb9Yb-371" value="0" style="whiteSpace=wrap;html=1;aspect=fixed;" vertex="1" parent="1">
          <mxGeometry x="360" y="680" width="20" height="20" as="geometry" />
        </mxCell>
        <mxCell id="VuWfE9Mjuec_pssRb9Yb-372" value="1" style="whiteSpace=wrap;html=1;aspect=fixed;fillColor=#3399FF;" vertex="1" parent="1">
          <mxGeometry x="380" y="680" width="20" height="20" as="geometry" />
        </mxCell>
        <mxCell id="VuWfE9Mjuec_pssRb9Yb-373" value="0" style="whiteSpace=wrap;html=1;aspect=fixed;" vertex="1" parent="1">
          <mxGeometry x="340" y="700" width="20" height="20" as="geometry" />
        </mxCell>
        <mxCell id="VuWfE9Mjuec_pssRb9Yb-374" value="1" style="whiteSpace=wrap;html=1;aspect=fixed;" vertex="1" parent="1">
          <mxGeometry x="360" y="700" width="20" height="20" as="geometry" />
        </mxCell>
        <mxCell id="VuWfE9Mjuec_pssRb9Yb-375" value="1" style="whiteSpace=wrap;html=1;aspect=fixed;fillColor=#3399FF;" vertex="1" parent="1">
          <mxGeometry x="380" y="700" width="20" height="20" as="geometry" />
        </mxCell>
        <mxCell id="VuWfE9Mjuec_pssRb9Yb-376" value="0" style="whiteSpace=wrap;html=1;aspect=fixed;" vertex="1" parent="1">
          <mxGeometry x="340" y="720" width="20" height="20" as="geometry" />
        </mxCell>
        <mxCell id="VuWfE9Mjuec_pssRb9Yb-377" value="0" style="whiteSpace=wrap;html=1;aspect=fixed;" vertex="1" parent="1">
          <mxGeometry x="360" y="720" width="20" height="20" as="geometry" />
        </mxCell>
        <mxCell id="VuWfE9Mjuec_pssRb9Yb-378" value="1" style="whiteSpace=wrap;html=1;aspect=fixed;fillColor=#3399FF;" vertex="1" parent="1">
          <mxGeometry x="380" y="720" width="20" height="20" as="geometry" />
        </mxCell>
        <mxCell id="VuWfE9Mjuec_pssRb9Yb-379" value="0" style="whiteSpace=wrap;html=1;aspect=fixed;" vertex="1" parent="1">
          <mxGeometry x="340" y="810" width="20" height="20" as="geometry" />
        </mxCell>
        <mxCell id="VuWfE9Mjuec_pssRb9Yb-380" value="0" style="whiteSpace=wrap;html=1;aspect=fixed;" vertex="1" parent="1">
          <mxGeometry x="360" y="810" width="20" height="20" as="geometry" />
        </mxCell>
        <mxCell id="VuWfE9Mjuec_pssRb9Yb-381" value="0" style="whiteSpace=wrap;html=1;aspect=fixed;" vertex="1" parent="1">
          <mxGeometry x="380" y="810" width="20" height="20" as="geometry" />
        </mxCell>
        <mxCell id="VuWfE9Mjuec_pssRb9Yb-382" value="1" style="whiteSpace=wrap;html=1;aspect=fixed;" vertex="1" parent="1">
          <mxGeometry x="340" y="830" width="20" height="20" as="geometry" />
        </mxCell>
        <mxCell id="VuWfE9Mjuec_pssRb9Yb-383" value="0" style="whiteSpace=wrap;html=1;aspect=fixed;" vertex="1" parent="1">
          <mxGeometry x="360" y="830" width="20" height="20" as="geometry" />
        </mxCell>
        <mxCell id="VuWfE9Mjuec_pssRb9Yb-384" value="1" style="whiteSpace=wrap;html=1;aspect=fixed;" vertex="1" parent="1">
          <mxGeometry x="380" y="830" width="20" height="20" as="geometry" />
        </mxCell>
        <mxCell id="VuWfE9Mjuec_pssRb9Yb-385" value="0" style="whiteSpace=wrap;html=1;aspect=fixed;" vertex="1" parent="1">
          <mxGeometry x="340" y="850" width="20" height="20" as="geometry" />
        </mxCell>
        <mxCell id="VuWfE9Mjuec_pssRb9Yb-386" value="1" style="whiteSpace=wrap;html=1;aspect=fixed;" vertex="1" parent="1">
          <mxGeometry x="360" y="850" width="20" height="20" as="geometry" />
        </mxCell>
        <mxCell id="VuWfE9Mjuec_pssRb9Yb-387" value="1" style="whiteSpace=wrap;html=1;aspect=fixed;" vertex="1" parent="1">
          <mxGeometry x="380" y="850" width="20" height="20" as="geometry" />
        </mxCell>
        <mxCell id="VuWfE9Mjuec_pssRb9Yb-388" value="0" style="whiteSpace=wrap;html=1;aspect=fixed;" vertex="1" parent="1">
          <mxGeometry x="340" y="870" width="20" height="20" as="geometry" />
        </mxCell>
        <mxCell id="VuWfE9Mjuec_pssRb9Yb-389" value="0" style="whiteSpace=wrap;html=1;aspect=fixed;" vertex="1" parent="1">
          <mxGeometry x="360" y="870" width="20" height="20" as="geometry" />
        </mxCell>
        <mxCell id="VuWfE9Mjuec_pssRb9Yb-390" value="1" style="whiteSpace=wrap;html=1;aspect=fixed;" vertex="1" parent="1">
          <mxGeometry x="380" y="870" width="20" height="20" as="geometry" />
        </mxCell>
      </root>
    </mxGraphModel>
  </diagram>
</mxfile>
